<?xml version="1.0" encoding="utf-8"?>
<svg xmlns="http://www.w3.org/2000/svg" fill="none" height="100%" overflow="visible" preserveAspectRatio="none" style="display: block;" viewBox="0 0 200 67" width="100%">
<g clip-path="url(#clip0_0_44)" id="Download_on_the_App_Store_Badge_US-UK_RGB_blk_092917 1">
<g id="Group">
<g id="Group_2">
<g id="Group_3">
<path d="M184.073 0.00021775H15.9357C15.3229 0.00021775 14.7173 0.00021775 14.1061 0.00356775C13.5944 0.00691775 13.0868 0.0166495 12.5702 0.0248403C11.4479 0.0380758 10.3283 0.137025 9.22098 0.32083C8.11526 0.508635 7.04417 0.862702 6.04395 1.37105C5.04496 1.88371 4.13214 2.54985 3.33863 3.34531C2.54095 4.13853 1.87602 5.0554 1.36942 6.06064C0.861412 7.06388 0.50916 8.13894 0.324826 9.2487C0.13874 10.3571 0.0386054 11.4782 0.0253209 12.602C0.0098108 13.1156 0.00817288 13.6309 0 14.1445V52.8609C0.00817288 53.381 0.0098108 53.8848 0.0253209 54.4051C0.0386094 55.5289 0.138744 56.6499 0.324826 57.7582C0.508651 58.8686 0.860924 59.9443 1.36942 60.9479C1.87579 61.9499 2.54081 62.8631 3.33863 63.6519C4.12913 64.4509 5.04254 65.1175 6.04395 65.6262C7.04417 66.1359 8.11513 66.4921 9.22098 66.6828C10.3284 66.8651 11.448 66.9641 12.5702 66.9789C13.0868 66.9903 13.5944 66.9969 14.1061 66.9969C14.7173 67.0002 15.3229 67.0002 15.9357 67.0002H184.073C184.674 67.0002 185.284 67.0002 185.885 66.9969C186.394 66.9969 186.917 66.9903 187.426 66.9789C188.546 66.9649 189.663 66.8659 190.768 66.6828C191.878 66.4908 192.953 66.1347 193.958 65.6262C194.958 65.1172 195.871 64.4506 196.661 63.6519C197.456 62.86 198.123 61.9475 198.636 60.9479C199.14 59.9436 199.489 58.868 199.67 57.7582C199.857 56.6498 199.96 55.529 199.98 54.4051C199.987 53.8848 199.987 53.381 199.987 52.8609C200 52.2523 200 51.6472 200 51.0288V15.9732C200 15.3598 200 14.7513 199.987 14.1445C199.987 13.6309 199.987 13.1156 199.98 12.602C199.96 11.478 199.857 10.3571 199.67 9.24863C199.489 8.13952 199.14 7.06454 198.636 6.06057C197.604 4.04567 195.968 2.40556 193.958 1.3709C192.953 0.863793 191.878 0.50982 190.768 0.320679C189.664 0.136065 188.546 0.0370808 187.426 0.0246058C186.917 0.0164318 186.394 0.00661625 185.885 0.00335C185.284 0 184.674 0.00021775 184.073 0.00021775Z" fill="var(--fill-0, white)" id="Vector"/>
<path d="M14.1142 65.5344C13.605 65.5344 13.1081 65.5278 12.6028 65.5165C11.5562 65.5028 10.512 65.4115 9.47887 65.2433C8.51549 65.077 7.58223 64.7677 6.70988 64.3255C5.84553 63.8871 5.05718 63.3121 4.37501 62.6227C3.68298 61.9415 3.10683 61.1513 2.66939 60.2836C2.22713 59.4102 1.92107 58.4741 1.76185 57.5078C1.58991 56.4695 1.49688 55.4196 1.48357 54.3672C1.47297 54.0139 1.4591 52.8377 1.4591 52.8377V14.1443C1.4591 14.1443 1.47388 12.9862 1.48365 12.6459C1.4964 11.5952 1.58889 10.5469 1.76031 9.5102C1.91982 8.54124 2.22613 7.6024 2.66862 6.72618C3.10445 5.85906 3.6774 5.06832 4.36527 4.38461C5.05236 3.69442 5.84324 3.11651 6.70906 2.67198C7.57941 2.23126 8.5109 1.92413 9.47233 1.76088C10.5089 1.59098 11.5567 1.49912 12.607 1.48608L14.115 1.46563H185.877L187.403 1.4869C188.444 1.49929 189.482 1.59033 190.509 1.75924C191.48 1.92453 192.421 2.23381 193.302 2.67688C195.036 3.57275 196.447 4.9901 197.338 6.73027C197.773 7.60044 198.075 8.53162 198.232 9.49221C198.406 10.5374 198.503 11.5939 198.523 12.6533C198.528 13.1276 198.528 13.6372 198.528 14.1443C198.541 14.7724 198.541 15.3703 198.541 15.973V51.0285C198.541 51.6371 198.541 52.2309 198.528 52.8295C198.528 53.3742 198.528 53.8732 198.521 54.3868C198.502 55.4272 198.406 56.4649 198.236 57.4914C198.08 58.4646 197.775 59.4081 197.333 60.2886C196.892 61.1469 196.32 61.9302 195.636 62.6097C194.953 63.3028 194.163 63.8811 193.297 64.3224C192.419 64.7679 191.479 65.0783 190.509 65.2433C189.476 65.4124 188.432 65.5037 187.385 65.5165C186.895 65.5278 186.383 65.5344 185.885 65.5344L184.073 65.5377L14.1142 65.5344Z" fill="var(--fill-0, black)" id="Vector_2"/>
</g>
<g id="&lt;Group&gt;">
<g id="&lt;Group&gt;_2">
<g id="&lt;Group&gt;_3">
<path d="M41.3974 34.0036C41.4153 32.6056 41.7859 31.2348 42.4745 30.0188C43.1631 28.8029 44.1475 27.7812 45.336 27.0489C44.581 25.9683 43.5849 25.079 42.427 24.4516C41.269 23.8242 39.9811 23.4761 38.6654 23.4348C35.8588 23.1396 33.1379 25.1179 31.7077 25.1179C30.2499 25.1179 28.0479 23.4641 25.6767 23.513C24.1429 23.5627 22.6482 24.0097 21.338 24.8104C20.0279 25.6112 18.9471 26.7384 18.2009 28.0822C14.9685 33.6908 17.3796 41.9336 20.4759 46.4671C22.0251 48.6871 23.8356 51.1669 26.2047 51.0789C28.5229 50.9826 29.3888 49.5974 32.1871 49.5974C34.9595 49.5974 35.7718 51.0789 38.1889 51.023C40.6765 50.9825 42.2438 48.7932 43.7386 46.5522C44.8517 44.9704 45.7082 43.2222 46.2764 41.3722C44.8312 40.7597 43.5979 39.7343 42.7302 38.4239C41.8626 37.1136 41.399 35.5762 41.3974 34.0036Z" fill="var(--fill-0, white)" id="&lt;Path&gt;"/>
<path d="M36.8319 20.4532C38.1882 18.8214 38.8564 16.724 38.6946 14.6065C36.6224 14.8246 34.7083 15.8171 33.3336 17.3863C32.6615 18.1529 32.1467 19.0447 31.8187 20.0108C31.4908 20.9769 31.356 21.9983 31.4221 23.0166C32.4586 23.0273 33.4839 22.8022 34.421 22.3582C35.3581 21.9141 36.1824 21.2628 36.8319 20.4532Z" fill="var(--fill-0, white)" id="&lt;Path&gt;_2"/>
</g>
</g>
<g id="Group_4">
<path d="M70.7017 45.4589H62.7906L60.8907 51.081H57.5399L65.0332 30.2808H68.5146L76.0079 51.081H72.5999L70.7017 45.4589ZM63.6099 42.8646H69.8808L66.7895 33.7404H66.7029L63.6099 42.8646Z" fill="var(--fill-0, white)" id="Vector_3"/>
<path d="M92.1909 43.4993C92.1909 48.2119 89.6741 51.2396 85.876 51.2396C84.9139 51.2901 83.9571 51.0679 83.115 50.5987C82.273 50.1295 81.5799 49.4321 81.115 48.5864H81.0431V56.0978H77.9371V35.916H80.9436V38.4383H81.0007C81.487 37.5967 82.1919 36.9029 83.0403 36.4308C83.8887 35.9587 84.849 35.726 85.8189 35.7573C89.6593 35.7573 92.1909 38.7998 92.1909 43.4993ZM88.9984 43.4993C88.9984 40.429 87.4151 38.4105 84.9995 38.4105C82.6263 38.4105 81.0301 40.4715 81.0301 43.4993C81.0301 46.5549 82.6263 48.6012 84.9995 48.6012C87.4152 48.6012 88.9984 46.5974 88.9984 43.4993Z" fill="var(--fill-0, white)" id="Vector_4"/>
<path d="M108.846 43.4993C108.846 48.2119 106.329 51.2396 102.531 51.2396C101.569 51.2901 100.612 51.068 99.7697 50.5987C98.9277 50.1295 98.2346 49.4321 97.7697 48.5864H97.6978V56.0978H94.5918V35.916H97.5982V38.4383H97.6553C98.1416 37.5967 98.8465 36.9029 99.6949 36.4308C100.543 35.9587 101.504 35.726 102.474 35.7573C106.314 35.7573 108.846 38.7998 108.846 43.4993ZM105.653 43.4993C105.653 40.429 104.07 38.4105 101.654 38.4105C99.281 38.4105 97.6848 40.4715 97.6848 43.4993C97.6848 46.5549 99.281 48.6012 101.654 48.6012C104.07 48.6012 105.653 46.5974 105.653 43.4993Z" fill="var(--fill-0, white)" id="Vector_5"/>
<path d="M119.853 45.2855C120.083 47.3482 122.083 48.7025 124.815 48.7025C127.433 48.7025 129.316 47.3481 129.316 45.4883C129.316 43.8738 128.18 42.9071 125.49 42.2446L122.801 41.5952C118.99 40.6726 117.22 38.8864 117.22 35.9879C117.22 32.3991 120.341 29.934 124.772 29.934C129.158 29.934 132.164 32.3991 132.266 35.9879H129.13C128.943 33.9121 127.23 32.6591 124.728 32.6591C122.226 32.6591 120.514 33.9269 120.514 35.772C120.514 37.2425 121.608 38.1078 124.283 38.7702L126.569 39.3329C130.828 40.3422 132.597 42.0565 132.597 45.0989C132.597 48.9903 129.504 51.4276 124.585 51.4276C119.982 51.4276 116.874 49.0476 116.673 45.2854L119.853 45.2855Z" fill="var(--fill-0, white)" id="Vector_6"/>
<path d="M139.3 32.3272V35.916H142.178V38.3811H139.3V46.7413C139.3 48.0401 139.876 48.6453 141.141 48.6453C141.483 48.6394 141.824 48.6153 142.163 48.5733V51.0236C141.594 51.1301 141.016 51.1784 140.438 51.1676C137.374 51.1676 136.18 50.0144 136.18 47.0733V38.3811H133.979V35.916H136.18V32.3272H139.3Z" fill="var(--fill-0, white)" id="Vector_7"/>
<path d="M143.844 43.4993C143.844 38.7278 146.648 35.7295 151.021 35.7295C155.408 35.7295 158.199 38.7278 158.199 43.4993C158.199 48.2838 155.423 51.2691 151.021 51.2691C146.621 51.2691 143.844 48.2838 143.844 43.4993ZM155.035 43.4993C155.035 40.2262 153.538 38.2944 151.021 38.2944C148.504 38.2944 147.009 40.2409 147.009 43.4993C147.009 46.7855 148.504 48.7026 151.021 48.7026C153.538 48.7026 155.035 46.7855 155.035 43.4993Z" fill="var(--fill-0, white)" id="Vector_8"/>
<path d="M160.76 35.916H163.723V38.4972H163.794C163.995 37.691 164.466 36.9786 165.129 36.4796C165.792 35.9807 166.606 35.7256 167.434 35.7573C167.792 35.756 168.149 35.795 168.498 35.8734V38.7851C168.046 38.6467 167.575 38.5831 167.103 38.597C166.652 38.5786 166.202 38.6583 165.784 38.8307C165.367 39.003 164.991 39.2639 164.684 39.5953C164.376 39.9268 164.144 40.321 164.003 40.7509C163.862 41.1809 163.815 41.6363 163.866 42.086V51.0809H160.76L160.76 35.916Z" fill="var(--fill-0, white)" id="Vector_9"/>
<path d="M182.819 46.6268C182.401 49.3798 179.726 51.2691 176.303 51.2691C171.901 51.2691 169.169 48.3133 169.169 43.5713C169.169 38.8145 171.916 35.7295 176.173 35.7295C180.359 35.7295 182.992 38.6117 182.992 43.2098V44.2763H172.305V44.4644C172.255 45.0225 172.325 45.5847 172.509 46.1137C172.693 46.6428 172.988 47.1265 173.373 47.5328C173.758 47.939 174.224 48.2586 174.742 48.4701C175.26 48.6817 175.816 48.7804 176.375 48.7598C177.109 48.8287 177.846 48.6584 178.475 48.2741C179.105 47.8897 179.594 47.312 179.87 46.6268L182.819 46.6268ZM172.319 42.1007H179.884C179.912 41.5989 179.836 41.0967 179.661 40.6257C179.486 40.1547 179.216 39.725 178.868 39.3636C178.519 39.0021 178.1 38.7168 177.636 38.5255C177.172 38.3342 176.674 38.241 176.173 38.2518C175.667 38.2488 175.166 38.3462 174.698 38.5384C174.229 38.7306 173.804 39.0138 173.446 39.3716C173.087 39.7294 172.803 40.1548 172.61 40.6233C172.417 41.0917 172.318 41.5938 172.319 42.1007Z" fill="var(--fill-0, white)" id="Vector_10"/>
</g>
</g>
</g>
<g id="&lt;Group&gt;_4">
<g id="Group_5">
<path d="M63.2206 14.6244C63.8718 14.5776 64.5252 14.6762 65.1338 14.9131C65.7424 15.15 66.2909 15.5193 66.7398 15.9944C67.1887 16.4694 67.5268 17.0384 67.7297 17.6603C67.9326 18.2822 67.9952 18.9414 67.9131 19.5905C67.9131 22.7835 66.1912 24.6189 63.2206 24.6189H59.6184V14.6244H63.2206ZM61.1674 23.2054H63.0476C63.5129 23.2333 63.9786 23.1569 64.4107 22.9816C64.8428 22.8064 65.2305 22.5368 65.5455 22.1925C65.8606 21.8482 66.095 21.4378 66.2318 20.9912C66.3687 20.5446 66.4044 20.0731 66.3364 19.6109C66.3995 19.1506 66.3601 18.6819 66.2212 18.2386C66.0823 17.7953 65.8472 17.3883 65.5329 17.0467C65.2186 16.7051 64.8328 16.4374 64.4031 16.2628C63.9734 16.0882 63.5105 16.0111 63.0476 16.0368H61.1674V23.2054Z" fill="var(--fill-0, white)" id="Vector_11"/>
<path d="M69.6628 20.8443C69.6155 20.3486 69.6721 19.8485 69.8289 19.376C69.9858 18.9036 70.2394 18.4692 70.5736 18.1007C70.9077 17.7322 71.3151 17.4378 71.7694 17.2364C72.2238 17.0349 72.7151 16.9308 73.212 16.9308C73.7088 16.9308 74.2002 17.0349 74.6545 17.2364C75.1089 17.4378 75.5162 17.7322 75.8504 18.1007C76.1846 18.4692 76.4382 18.9036 76.595 19.376C76.7519 19.8485 76.8085 20.3486 76.7611 20.8443C76.8093 21.3404 76.7534 21.8412 76.597 22.3145C76.4406 22.7877 76.1871 23.2229 75.8529 23.5921C75.5186 23.9613 75.111 24.2563 74.6561 24.4582C74.2013 24.6601 73.7094 24.7644 73.212 24.7644C72.7145 24.7644 72.2226 24.6601 71.7678 24.4582C71.313 24.2563 70.9054 23.9613 70.5711 23.5921C70.2368 23.2229 69.9834 22.7877 69.8269 22.3145C69.6705 21.8412 69.6146 21.3404 69.6628 20.8443ZM75.2334 20.8443C75.2334 19.2094 74.5006 18.2533 73.2144 18.2533C71.9234 18.2533 71.1971 19.2094 71.1971 20.8443C71.1971 22.4923 71.9234 23.441 73.2144 23.441C74.5006 23.441 75.2334 22.4857 75.2334 20.8443Z" fill="var(--fill-0, white)" id="Vector_12"/>
<path d="M86.1967 24.6187H84.656L83.1005 19.0637H82.983L81.4341 24.6187H79.908L77.8335 17.0763H79.34L80.6882 22.8316H80.7992L82.3465 17.0763H83.7713L85.3186 22.8316H85.4362L86.7778 17.0763H88.2631L86.1967 24.6187Z" fill="var(--fill-0, white)" id="Vector_13"/>
<path d="M90.0079 17.0763H91.4376V18.2745H91.5486C91.7369 17.8442 92.0545 17.4834 92.4571 17.2425C92.8596 17.0017 93.3272 16.8927 93.7945 16.9307C94.1607 16.9031 94.5284 16.9585 94.8703 17.0926C95.2123 17.2268 95.5197 17.4363 95.7699 17.7058C96.0201 17.9752 96.2066 18.2975 96.3155 18.649C96.4245 19.0004 96.4532 19.372 96.3994 19.736V24.6186H94.9142V20.1098C94.9142 18.8977 94.3886 18.295 93.2902 18.295C93.0415 18.2833 92.7933 18.3258 92.5626 18.4193C92.3319 18.5128 92.124 18.6552 91.9533 18.8367C91.7827 19.0183 91.6532 19.2347 91.5737 19.4711C91.4943 19.7075 91.4668 19.9583 91.4931 20.2063V24.6187H90.0079L90.0079 17.0763Z" fill="var(--fill-0, white)" id="Vector_14"/>
<path d="M98.7661 14.132H100.251V24.6187H98.7661V14.132Z" fill="var(--fill-0, white)" id="Vector_15"/>
<path d="M102.316 20.8443C102.269 20.3486 102.325 19.8484 102.482 19.376C102.639 18.9035 102.893 18.4691 103.227 18.1006C103.561 17.7321 103.969 17.4377 104.423 17.2362C104.877 17.0348 105.369 16.9307 105.866 16.9307C106.363 16.9307 106.854 17.0348 107.308 17.2362C107.763 17.4377 108.17 17.7321 108.504 18.1006C108.838 18.4691 109.092 18.9035 109.249 19.376C109.406 19.8484 109.462 20.3486 109.415 20.8443C109.463 21.3405 109.407 21.8413 109.251 22.3145C109.094 22.7877 108.841 23.2229 108.507 23.5921C108.172 23.9613 107.765 24.2563 107.31 24.4582C106.855 24.6601 106.363 24.7643 105.866 24.7643C105.368 24.7643 104.876 24.6601 104.421 24.4582C103.967 24.2563 103.559 23.9613 103.225 23.5921C102.89 23.2229 102.637 22.7877 102.48 22.3145C102.324 21.8413 102.268 21.3405 102.316 20.8443ZM107.887 20.8443C107.887 19.2094 107.154 18.2533 105.868 18.2533C104.577 18.2533 103.85 19.2094 103.85 20.8443C103.85 22.4923 104.577 23.441 105.868 23.441C107.154 23.441 107.887 22.4857 107.887 20.8443Z" fill="var(--fill-0, white)" id="Vector_16"/>
<path d="M110.979 22.4857C110.979 21.1281 111.988 20.3454 113.778 20.2341L115.817 20.1164V19.4653C115.817 18.6687 115.291 18.2189 114.276 18.2189C113.447 18.2189 112.872 18.524 112.707 19.0572H111.269C111.421 17.7617 112.637 16.9308 114.344 16.9308C116.231 16.9308 117.295 17.8721 117.295 19.4653V24.6187H115.866V23.5588H115.748C115.51 23.939 115.175 24.249 114.777 24.457C114.38 24.6651 113.935 24.7638 113.487 24.743C113.172 24.776 112.852 24.7422 112.55 24.6439C112.248 24.5455 111.97 24.3849 111.733 24.1722C111.497 23.9595 111.308 23.6996 111.178 23.4091C111.048 23.1186 110.98 22.8041 110.979 22.4857ZM115.817 21.8412V21.2107L113.979 21.3284C112.942 21.398 112.472 21.7513 112.472 22.4162C112.472 23.095 113.06 23.4901 113.868 23.4901C114.105 23.5141 114.344 23.4901 114.571 23.4196C114.798 23.3491 115.009 23.2335 115.191 23.0797C115.373 22.9259 115.522 22.7369 115.629 22.5242C115.737 22.3114 115.801 22.0792 115.817 21.8412Z" fill="var(--fill-0, white)" id="Vector_17"/>
<path d="M119.247 20.8443C119.247 18.461 120.47 16.9512 122.371 16.9512C122.842 16.9295 123.309 17.0424 123.717 17.2767C124.126 17.511 124.46 17.8571 124.679 18.2745H124.79V14.132H126.276V24.6187H124.852V23.4271H124.735C124.498 23.8416 124.153 24.1834 123.736 24.4153C123.32 24.6473 122.848 24.7606 122.371 24.743C120.457 24.7431 119.247 23.2333 119.247 20.8443ZM120.782 20.8443C120.782 22.444 121.534 23.4067 122.793 23.4067C124.044 23.4067 124.818 22.4301 124.818 20.8508C124.818 19.2789 124.036 18.2884 122.793 18.2884C121.542 18.2884 120.782 19.2576 120.782 20.8443Z" fill="var(--fill-0, white)" id="Vector_18"/>
<path d="M132.421 20.8443C132.373 20.3486 132.43 19.8485 132.587 19.376C132.744 18.9036 132.997 18.4692 133.331 18.1007C133.666 17.7322 134.073 17.4378 134.527 17.2364C134.982 17.0349 135.473 16.9308 135.97 16.9308C136.467 16.9308 136.958 17.0349 137.412 17.2364C137.867 17.4378 138.274 17.7322 138.608 18.1007C138.942 18.4692 139.196 18.9036 139.353 19.376C139.51 19.8485 139.566 20.3486 139.519 20.8443C139.567 21.3404 139.511 21.8412 139.355 22.3145C139.198 22.7877 138.945 23.2229 138.611 23.5921C138.276 23.9613 137.869 24.2563 137.414 24.4582C136.959 24.6601 136.467 24.7644 135.97 24.7644C135.472 24.7644 134.98 24.6601 134.526 24.4582C134.071 24.2563 133.663 23.9613 133.329 23.5921C132.995 23.2229 132.741 22.7877 132.585 22.3145C132.428 21.8412 132.372 21.3404 132.421 20.8443ZM137.991 20.8443C137.991 19.2094 137.258 18.2533 135.972 18.2533C134.681 18.2533 133.955 19.2094 133.955 20.8443C133.955 22.4923 134.681 23.441 135.972 23.441C137.258 23.441 137.991 22.4857 137.991 20.8443Z" fill="var(--fill-0, white)" id="Vector_19"/>
<path d="M141.512 17.0763H142.942V18.2745H143.053C143.241 17.8442 143.559 17.4834 143.961 17.2425C144.364 17.0017 144.831 16.8927 145.299 16.9307C145.665 16.9031 146.032 16.9585 146.374 17.0926C146.716 17.2268 147.024 17.4363 147.274 17.7058C147.524 17.9752 147.711 18.2975 147.82 18.649C147.929 19.0004 147.957 19.372 147.903 19.736V24.6186H146.418V20.1098C146.418 18.8977 145.893 18.295 144.794 18.295C144.546 18.2833 144.297 18.3258 144.067 18.4193C143.836 18.5128 143.628 18.6552 143.457 18.8367C143.287 19.0183 143.157 19.2347 143.078 19.4711C142.998 19.7075 142.971 19.9583 142.997 20.2063V24.6187H141.512V17.0763Z" fill="var(--fill-0, white)" id="Vector_20"/>
<path d="M156.296 15.1985V17.1107H157.927V18.3645H156.296V22.2428C156.296 23.0329 156.621 23.3788 157.36 23.3788C157.55 23.3782 157.739 23.3668 157.927 23.3445V24.5844C157.66 24.6322 157.39 24.6576 157.119 24.6604C155.467 24.6604 154.809 24.0781 154.809 22.6239V18.3644H153.614V17.1106H154.809V15.1985H156.296Z" fill="var(--fill-0, white)" id="Vector_21"/>
<path d="M159.955 14.132H161.428V18.2884H161.545C161.743 17.854 162.069 17.4913 162.48 17.2495C162.89 17.0077 163.365 16.8987 163.84 16.9373C164.204 16.9174 164.568 16.9784 164.906 17.1158C165.245 17.2532 165.548 17.4637 165.796 17.7323C166.043 18.0008 166.229 18.3209 166.339 18.6695C166.449 19.0181 166.48 19.3868 166.432 19.7491V24.6187H164.945V20.1163C164.945 18.9116 164.385 18.3015 163.336 18.3015C163.08 18.2805 162.824 18.3157 162.583 18.4045C162.343 18.4934 162.125 18.6338 161.945 18.8159C161.764 18.9981 161.625 19.2175 161.538 19.459C161.451 19.7004 161.418 19.958 161.441 20.2136V24.6187H159.956L159.955 14.132Z" fill="var(--fill-0, white)" id="Vector_22"/>
<path d="M175.092 22.5822C174.89 23.2716 174.453 23.8678 173.857 24.2667C173.261 24.6656 172.544 24.8418 171.831 24.7643C171.335 24.7774 170.843 24.6822 170.387 24.4854C169.932 24.2885 169.524 23.9947 169.194 23.6243C168.863 23.2539 168.617 22.8158 168.472 22.3404C168.327 21.865 168.287 21.3637 168.355 20.8713C168.289 20.3773 168.329 19.8749 168.474 19.3981C168.618 18.9213 168.863 18.4811 169.192 18.1075C169.521 17.7339 169.927 17.4354 170.381 17.2324C170.835 17.0294 171.327 16.9265 171.825 16.9308C173.919 16.9308 175.182 18.3645 175.182 20.733V21.2524H169.868V21.3358C169.844 21.6126 169.879 21.8912 169.97 22.1538C170.06 22.4163 170.204 22.657 170.393 22.8605C170.582 23.0639 170.811 23.2256 171.065 23.3351C171.32 23.4447 171.595 23.4996 171.872 23.4966C172.227 23.5393 172.587 23.4752 172.906 23.3124C173.225 23.1496 173.488 22.8954 173.662 22.5822L175.092 22.5822ZM169.868 20.1515H173.669C173.688 19.8984 173.653 19.6441 173.568 19.4051C173.483 19.166 173.349 18.9475 173.174 18.7634C173 18.5794 172.789 18.434 172.555 18.3366C172.321 18.2392 172.07 18.1918 171.816 18.1976C171.56 18.1944 171.305 18.2427 171.067 18.3398C170.829 18.4369 170.613 18.5807 170.431 18.7628C170.249 18.9449 170.106 19.1615 170.009 19.4001C169.912 19.6386 169.864 19.8941 169.868 20.1515Z" fill="var(--fill-0, white)" id="Vector_23"/>
</g>
</g>
</g>
</g>
<defs>
<clipPath id="clip0_0_44">
<rect fill="white" height="67" width="200"/>
</clipPath>
</defs>
</svg>