<?xml version="1.0" encoding="utf-8"?>
<svg xmlns="http://www.w3.org/2000/svg" fill="none" height="100%" overflow="visible" preserveAspectRatio="none" style="display: block;" viewBox="0 0 160 53" width="100%">
<g clip-path="url(#clip0_0_8)" id="Download_on_the_App_Store_Badge_US-UK_RGB_blk_092917 1">
<g id="Group">
<g id="Group_2">
<g id="Group_3">
<path d="M147.259 0.00017225H12.7486C12.2583 0.00017225 11.7739 0.00017225 11.2849 0.00282225C10.8755 0.00547225 10.4694 0.0131705 10.0562 0.0196498C9.15832 0.0301196 8.26261 0.108393 7.37678 0.253791C6.49221 0.402353 5.63534 0.682436 4.83516 1.08457C4.03596 1.4901 3.30571 2.01704 2.6709 2.64629C2.03276 3.27377 1.50082 3.99904 1.09553 4.79423C0.689129 5.58784 0.407328 6.43827 0.259861 7.31613C0.110992 8.19289 0.0308843 9.07976 0.0202567 9.96878C0.00784864 10.375 0.0065383 10.7826 0 11.1889V41.8153C0.0065383 42.2267 0.00784864 42.6253 0.0202567 43.0368C0.0308876 43.9258 0.110995 44.8126 0.259861 45.6894C0.40692 46.5677 0.688739 47.4186 1.09553 48.2126C1.50063 49.0052 2.03265 49.7275 2.6709 50.3515C3.30331 50.9835 4.03403 51.5108 4.83516 51.9133C5.63533 52.3165 6.49211 52.5982 7.37678 52.7491C8.26276 52.8933 9.15838 52.9716 10.0562 52.9833C10.4694 52.9924 10.8755 52.9975 11.2849 52.9975C11.7739 53.0002 12.2583 53.0002 12.7486 53.0002H147.259C147.739 53.0002 148.227 53.0002 148.708 52.9975C149.115 52.9975 149.533 52.9924 149.941 52.9833C150.837 52.9722 151.731 52.8939 152.615 52.7491C153.502 52.5972 154.362 52.3155 155.166 51.9133C155.967 51.5106 156.697 50.9833 157.329 50.3515C157.965 49.7251 158.498 49.0033 158.908 48.2126C159.312 47.4181 159.591 46.5672 159.736 45.6894C159.885 44.8125 159.968 43.9259 159.984 43.0368C159.99 42.6253 159.99 42.2267 159.99 41.8153C160 41.3339 160 40.8552 160 40.366V12.6355C160 12.1503 160 11.669 159.99 11.1889C159.99 10.7826 159.99 10.375 159.984 9.96873C159.968 9.07963 159.885 8.19296 159.736 7.31608C159.591 6.43872 159.312 5.58836 158.908 4.79418C158.083 3.20031 156.774 1.90291 155.166 1.08445C154.362 0.683299 153.502 0.403291 152.615 0.253671C151.731 0.107633 150.837 0.0293325 149.941 0.0194643C149.533 0.0129983 149.115 0.00523375 148.708 0.00265C148.227 0 147.739 0.00017225 147.259 0.00017225Z" fill="var(--fill-0, white)" id="Vector"/>
<path d="M11.2914 51.8406C10.884 51.8406 10.4865 51.8355 10.0823 51.8265C9.24498 51.8156 8.40963 51.7434 7.58309 51.6103C6.81239 51.4788 6.06579 51.2341 5.36791 50.8844C4.67643 50.5375 4.04574 50.0827 3.50001 49.5374C2.94638 48.9985 2.48546 48.3734 2.13551 47.687C1.78171 46.9962 1.53685 46.2556 1.40948 45.4912C1.27193 44.6699 1.1975 43.8394 1.18686 43.0069C1.17838 42.7274 1.16728 41.797 1.16728 41.797V11.1888C1.16728 11.1888 1.1791 10.2726 1.18692 10.0035C1.19712 9.17229 1.27111 8.34307 1.40825 7.52299C1.53586 6.75651 1.7809 6.01384 2.1349 5.32071C2.48356 4.63478 2.94192 4.00927 3.49222 3.46843C4.04189 2.92245 4.67459 2.4653 5.36725 2.11365C6.06353 1.76502 6.80872 1.52207 7.57787 1.39293C8.40712 1.25853 9.24536 1.18587 10.0856 1.17555L11.292 1.15938H148.701L149.922 1.1762C150.755 1.18601 151.585 1.25802 152.407 1.39163C153.184 1.52239 153.937 1.76704 154.641 2.11754C156.029 2.82621 157.158 3.94739 157.87 5.32394C158.219 6.01229 158.46 6.7489 158.586 7.50876C158.725 8.33556 158.802 9.1713 158.818 10.0093C158.822 10.3846 158.822 10.7876 158.822 11.1888C158.833 11.6856 158.833 12.1586 158.833 12.6354V40.3659C158.833 40.8472 158.833 41.317 158.822 41.7905C158.822 42.2214 158.822 42.6161 158.817 43.0224C158.801 43.8454 158.725 44.6662 158.588 45.4782C158.464 46.2482 158.22 46.9945 157.866 47.691C157.514 48.37 157.056 48.9896 156.508 49.527C155.962 50.0753 155.33 50.5328 154.637 50.8819C153.935 51.2343 153.183 51.4799 152.407 51.6103C151.581 51.7441 150.745 51.8164 149.908 51.8265C149.516 51.8355 149.106 51.8406 148.708 51.8406L147.259 51.8433L11.2914 51.8406Z" fill="var(--fill-0, black)" id="Vector_2"/>
</g>
<g id="&lt;Group&gt;">
<g id="&lt;Group&gt;_2">
<g id="&lt;Group&gt;_3">
<path d="M33.1179 26.8984C33.1323 25.7925 33.4287 24.7081 33.9796 23.7462C34.5305 22.7843 35.318 21.9762 36.2688 21.3969C35.6648 20.5421 34.868 19.8386 33.9416 19.3423C33.0152 18.846 31.9849 18.5706 30.9323 18.538C28.687 18.3045 26.5103 19.8694 25.3662 19.8694C24.1999 19.8694 22.4383 18.5612 20.5413 18.5999C19.3143 18.6391 18.1185 18.9927 17.0704 19.6262C16.0223 20.2596 15.1577 21.1513 14.5607 22.2143C11.9748 26.6509 13.9037 33.1713 16.3807 36.7576C17.6201 38.5137 19.0685 40.4753 20.9637 40.4057C22.8183 40.3295 23.511 39.2338 25.7497 39.2338C27.9676 39.2338 28.6174 40.4057 30.5511 40.3615C32.5412 40.3295 33.795 38.5976 34.9909 36.8249C35.8813 35.5736 36.5666 34.1907 37.0211 32.7273C35.865 32.2427 34.8783 31.4316 34.1842 30.395C33.4901 29.3585 33.1192 28.1424 33.1179 26.8984Z" fill="var(--fill-0, white)" id="&lt;Path&gt;"/>
<path d="M29.4655 16.1794C30.5506 14.8886 31.0851 13.2295 30.9557 11.5544C29.2979 11.7269 27.7666 12.512 26.6669 13.7533C26.1292 14.3597 25.7174 15.0652 25.455 15.8294C25.1926 16.5937 25.0848 17.4016 25.1377 18.2072C25.9669 18.2156 26.7872 18.0375 27.5368 17.6863C28.2865 17.3351 28.9459 16.8198 29.4655 16.1794Z" fill="var(--fill-0, white)" id="&lt;Path&gt;_2"/>
</g>
</g>
<g id="Group_4">
<path d="M56.5614 35.96H50.2324L48.7126 40.4073H46.0319L52.0265 23.9535H54.8117L60.8063 40.4073H58.0799L56.5614 35.96ZM50.8879 33.9078H55.9046L53.4316 26.6902H53.3624L50.8879 33.9078Z" fill="var(--fill-0, white)" id="Vector_3"/>
<path d="M73.7527 34.4099C73.7527 38.1378 71.7393 40.5328 68.7008 40.5328C67.9311 40.5727 67.1656 40.397 66.492 40.0259C65.8184 39.6547 65.2639 39.103 64.892 38.434H64.8345V44.3758H62.3497V28.4112H64.7549V30.4064H64.8006C65.1896 29.7407 65.7535 29.1918 66.4322 28.8184C67.111 28.445 67.8792 28.2608 68.6551 28.2856C71.7275 28.2856 73.7527 30.6924 73.7527 34.4099ZM71.1987 34.4099C71.1987 31.9812 69.9321 30.3844 67.9996 30.3844C66.1011 30.3844 64.8241 32.0148 64.8241 34.4099C64.8241 36.827 66.1011 38.4457 67.9996 38.4457C69.9321 38.4457 71.1987 36.8606 71.1987 34.4099Z" fill="var(--fill-0, white)" id="Vector_4"/>
<path d="M87.0765 34.4099C87.0765 38.1378 85.063 40.5328 82.0246 40.5328C81.2549 40.5727 80.4894 40.397 79.8158 40.0259C79.1422 39.6547 78.5877 39.103 78.2157 38.434H78.1582V44.3758H75.6734V28.4112H78.0786V30.4064H78.1243C78.5133 29.7407 79.0772 29.1919 79.7559 28.8184C80.4347 28.445 81.2029 28.2608 81.9788 28.2857C85.0513 28.2857 87.0765 30.6924 87.0765 34.4099ZM84.5224 34.4099C84.5224 31.9812 83.2559 30.3844 81.3234 30.3844C79.4248 30.3844 78.1478 32.0148 78.1478 34.4099C78.1478 36.827 79.4248 38.4457 81.3234 38.4457C83.2559 38.4457 84.5224 36.8606 84.5224 34.4099Z" fill="var(--fill-0, white)" id="Vector_5"/>
<path d="M95.8824 35.8229C96.0665 37.4545 97.666 38.5259 99.8518 38.5259C101.946 38.5259 103.453 37.4545 103.453 35.9833C103.453 34.7061 102.544 33.9414 100.392 33.4174L98.2405 32.9037C95.1917 32.1739 93.7762 30.7609 93.7762 28.468C93.7762 25.6291 96.2728 23.6791 99.8179 23.6791C103.326 23.6791 105.732 25.6291 105.813 28.468H103.304C103.154 26.826 101.784 25.8348 99.7826 25.8348C97.7809 25.8348 96.4112 26.8377 96.4112 28.2972C96.4112 29.4605 97.286 30.145 99.4261 30.669L101.255 31.1141C104.662 31.9125 106.078 33.2685 106.078 35.6753C106.078 38.7535 103.603 40.6815 99.6677 40.6815C95.9855 40.6815 93.4994 38.7988 93.3388 35.8227L95.8824 35.8229Z" fill="var(--fill-0, white)" id="Vector_6"/>
<path d="M111.44 25.5722V28.4112H113.742V30.3611H111.44V36.9745C111.44 38.0019 111.901 38.4806 112.913 38.4806C113.186 38.4759 113.459 38.4569 113.731 38.4237V40.362C113.276 40.4462 112.813 40.4844 112.35 40.4759C109.899 40.4759 108.944 39.5636 108.944 37.2371V30.3611H107.184V28.4112H108.944V25.5722H111.44Z" fill="var(--fill-0, white)" id="Vector_7"/>
<path d="M115.075 34.4099C115.075 30.6355 117.319 28.2637 120.817 28.2637C124.327 28.2637 126.559 30.6354 126.559 34.4099C126.559 38.1947 124.338 40.5561 120.817 40.5561C117.296 40.5561 115.075 38.1947 115.075 34.4099ZM124.028 34.4099C124.028 31.8207 122.83 30.2926 120.817 30.2926C118.803 30.2926 117.607 31.8324 117.607 34.4099C117.607 37.0094 118.803 38.5259 120.817 38.5259C122.83 38.5259 124.028 37.0094 124.028 34.4099Z" fill="var(--fill-0, white)" id="Vector_8"/>
<path d="M128.608 28.4112H130.978V30.453H131.036C131.196 29.8153 131.573 29.2517 132.103 28.857C132.633 28.4623 133.285 28.2605 133.947 28.2856C134.234 28.2846 134.519 28.3154 134.799 28.3775V30.6807C134.437 30.5713 134.06 30.521 133.682 30.5319C133.321 30.5174 132.961 30.5805 132.627 30.7168C132.293 30.8531 131.993 31.0595 131.747 31.3217C131.501 31.5839 131.315 31.8957 131.202 32.2358C131.089 32.5759 131.052 32.9362 131.093 33.2919V40.4073H128.608L128.608 28.4112Z" fill="var(--fill-0, white)" id="Vector_9"/>
<path d="M146.255 36.8839C145.921 39.0616 143.781 40.5561 141.043 40.5561C137.521 40.5561 135.335 38.218 135.335 34.4668C135.335 30.704 137.533 28.2636 140.938 28.2636C144.287 28.2636 146.394 30.5436 146.394 34.1809V35.0245H137.844V35.1733C137.804 35.6148 137.86 36.0596 138.007 36.478C138.155 36.8965 138.39 37.2792 138.698 37.6005C139.006 37.9219 139.38 38.1747 139.794 38.342C140.208 38.5094 140.653 38.5875 141.1 38.5712C141.687 38.6257 142.277 38.491 142.78 38.1869C143.284 37.8829 143.675 37.4259 143.896 36.8839L146.255 36.8839ZM137.855 33.3036H143.907C143.93 32.9066 143.869 32.5093 143.729 32.1367C143.589 31.7641 143.373 31.4242 143.094 31.1383C142.815 30.8524 142.48 30.6268 142.109 30.4754C141.738 30.3241 141.339 30.2504 140.938 30.2589C140.534 30.2565 140.132 30.3336 139.758 30.4856C139.384 30.6376 139.043 30.8616 138.757 31.1447C138.47 31.4278 138.243 31.7643 138.088 32.1348C137.933 32.5053 137.854 32.9026 137.855 33.3036Z" fill="var(--fill-0, white)" id="Vector_10"/>
</g>
</g>
</g>
<g id="&lt;Group&gt;_4">
<g id="Group_5">
<path d="M50.5765 11.5686C51.0974 11.5315 51.6202 11.6095 52.107 11.7969C52.5939 11.9843 53.0327 12.2765 53.3918 12.6523C53.7509 13.0281 54.0214 13.4782 54.1837 13.9701C54.3461 14.462 54.3962 14.9835 54.3305 15.497C54.3305 18.0228 52.953 19.4746 50.5765 19.4746H47.6947V11.5686H50.5765ZM48.9339 18.3566H50.4381C50.8103 18.3786 51.1829 18.3181 51.5286 18.1795C51.8742 18.0409 52.1844 17.8276 52.4364 17.5553C52.6884 17.2829 52.876 16.9582 52.9855 16.605C53.0949 16.2517 53.1235 15.8787 53.0691 15.5131C53.1196 15.1489 53.0881 14.7782 52.9769 14.4276C52.8658 14.0769 52.6778 13.7549 52.4263 13.4847C52.1749 13.2145 51.8662 13.0027 51.5225 12.8646C51.1787 12.7265 50.8084 12.6655 50.4381 12.6858H48.9339V18.3566Z" fill="var(--fill-0, white)" id="Vector_11"/>
<path d="M55.7303 16.4888C55.6924 16.0967 55.7377 15.7011 55.8631 15.3273C55.9886 14.9536 56.1915 14.6099 56.4589 14.3185C56.7262 14.027 57.0521 13.7941 57.4155 13.6347C57.779 13.4754 58.1721 13.393 58.5696 13.393C58.9671 13.393 59.3601 13.4754 59.7236 13.6347C60.0871 13.7941 60.413 14.027 60.6803 14.3185C60.9476 14.6099 61.1506 14.9536 61.276 15.3273C61.4015 15.7011 61.4468 16.0967 61.4089 16.4888C61.4475 16.8812 61.4028 17.2774 61.2776 17.6517C61.1525 18.0261 60.9497 18.3703 60.6823 18.6624C60.4149 18.9544 60.0888 19.1878 59.7249 19.3475C59.3611 19.5072 58.9675 19.5897 58.5696 19.5897C58.1716 19.5897 57.7781 19.5072 57.4142 19.3475C57.0504 19.1878 56.7243 18.9544 56.4569 18.6624C56.1895 18.3703 55.9867 18.0261 55.8615 17.6517C55.7364 17.2774 55.6917 16.8812 55.7303 16.4888ZM60.1867 16.4888C60.1867 15.1955 59.6004 14.4391 58.5715 14.4391C57.5387 14.4391 56.9577 15.1955 56.9577 16.4888C56.9577 17.7924 57.5387 18.5429 58.5715 18.5429C59.6005 18.5429 60.1867 17.7872 60.1867 16.4888Z" fill="var(--fill-0, white)" id="Vector_12"/>
<path d="M68.9574 19.4745H67.7248L66.4804 15.0803H66.3864L65.1473 19.4745H63.9264L62.2668 13.5081H63.472L64.5505 18.0608H64.6393L65.8772 13.5081H67.0171L68.2549 18.0608H68.3489L69.4222 13.5081H70.6105L68.9574 19.4745Z" fill="var(--fill-0, white)" id="Vector_13"/>
<path d="M72.0063 13.5081H73.1501V14.4559H73.2389C73.3895 14.1155 73.6436 13.8302 73.9656 13.6396C74.2877 13.4491 74.6617 13.3629 75.0356 13.393C75.3285 13.3711 75.6227 13.4149 75.8963 13.521C76.1698 13.6272 76.4158 13.7929 76.6159 14.006C76.8161 14.2192 76.9653 14.4742 77.0524 14.7522C77.1396 15.0302 77.1626 15.3241 77.1196 15.6121V19.4745H75.9313V15.9078C75.9313 14.949 75.5109 14.4721 74.6321 14.4721C74.4332 14.4629 74.2347 14.4965 74.0501 14.5705C73.8655 14.6444 73.6992 14.7571 73.5627 14.9007C73.4261 15.0443 73.3225 15.2155 73.259 15.4025C73.1954 15.5895 73.1734 15.7879 73.1945 15.9841V19.4745H72.0063L72.0063 13.5081Z" fill="var(--fill-0, white)" id="Vector_14"/>
<path d="M79.0129 11.179H80.2011V19.4745H79.0129V11.179Z" fill="var(--fill-0, white)" id="Vector_15"/>
<path d="M81.8529 16.4888C81.815 16.0966 81.8603 15.701 81.9858 15.3273C82.1113 14.9535 82.3143 14.6099 82.5816 14.3184C82.849 14.0269 83.1749 13.794 83.5384 13.6346C83.9019 13.4753 84.295 13.3929 84.6925 13.3929C85.09 13.3929 85.4831 13.4753 85.8466 13.6346C86.2101 13.794 86.536 14.0269 86.8034 14.3184C87.0708 14.6099 87.2737 14.9535 87.3992 15.3273C87.5247 15.701 87.57 16.0966 87.5322 16.4888C87.5707 16.8813 87.5259 17.2774 87.4007 17.6518C87.2756 18.0261 87.0727 18.3704 86.8053 18.6624C86.5379 18.9544 86.2117 19.1878 85.8479 19.3475C85.484 19.5072 85.0905 19.5897 84.6925 19.5897C84.2946 19.5897 83.901 19.5072 83.5371 19.3475C83.1733 19.1878 82.8471 18.9544 82.5797 18.6624C82.3123 18.3704 82.1095 18.0261 81.9843 17.6518C81.8591 17.2774 81.8143 16.8813 81.8529 16.4888ZM86.3093 16.4888C86.3093 15.1955 85.723 14.4391 84.6941 14.4391C83.6613 14.4391 83.0803 15.1955 83.0803 16.4888C83.0803 17.7924 83.6613 18.5429 84.6941 18.5429C85.7231 18.5429 86.3093 17.7872 86.3093 16.4888Z" fill="var(--fill-0, white)" id="Vector_16"/>
<path d="M88.7831 17.7872C88.7831 16.7132 89.59 16.0941 91.0224 16.0061L92.6533 15.9129V15.398C92.6533 14.7678 92.2328 14.412 91.4207 14.412C90.7574 14.412 90.2977 14.6533 90.1659 15.0751H89.0155C89.1369 14.0503 90.1097 13.393 91.4755 13.393C92.9849 13.393 93.8363 14.1376 93.8363 15.398V19.4745H92.6925V18.6361H92.5984C92.4076 18.9368 92.1397 19.182 91.8219 19.3466C91.5042 19.5112 91.1481 19.5892 90.79 19.5728C90.5372 19.5989 90.2818 19.5722 90.0401 19.4944C89.7984 19.4166 89.5758 19.2895 89.3868 19.1213C89.1977 18.953 89.0463 18.7474 88.9423 18.5176C88.8383 18.2879 88.7841 18.039 88.7831 17.7872ZM92.6533 17.2774V16.7786L91.183 16.8718C90.3539 16.9267 89.9778 17.2062 89.9778 17.7322C89.9778 18.2692 90.4479 18.5817 91.0943 18.5817C91.2837 18.6007 91.475 18.5817 91.6568 18.526C91.8387 18.4702 92.0073 18.3788 92.1528 18.2571C92.2983 18.1354 92.4175 17.9859 92.5035 17.8176C92.5895 17.6493 92.6404 17.4656 92.6533 17.2774Z" fill="var(--fill-0, white)" id="Vector_17"/>
<path d="M95.3979 16.4888C95.3979 14.6035 96.3759 13.4092 97.8971 13.4092C98.2734 13.392 98.6468 13.4813 98.9738 13.6666C99.3007 13.852 99.5677 14.1258 99.7434 14.4559H99.8322V11.179H101.02V19.4745H99.8819V18.5319H99.7878C99.5985 18.8598 99.3222 19.1301 98.989 19.3136C98.6557 19.4971 98.2781 19.5868 97.8971 19.5728C96.3655 19.5729 95.3979 18.3786 95.3979 16.4888ZM96.6254 16.4888C96.6254 17.7542 97.2273 18.5157 98.234 18.5157C99.2355 18.5157 99.8545 17.7432 99.8545 16.4939C99.8545 15.2504 99.229 14.467 98.234 14.467C97.2338 14.467 96.6254 15.2336 96.6254 16.4888Z" fill="var(--fill-0, white)" id="Vector_18"/>
<path d="M105.937 16.4888C105.899 16.0967 105.944 15.7011 106.069 15.3273C106.195 14.9536 106.398 14.6099 106.665 14.3185C106.933 14.027 107.258 13.7941 107.622 13.6347C107.985 13.4754 108.378 13.393 108.776 13.393C109.173 13.393 109.566 13.4754 109.93 13.6347C110.293 13.7941 110.619 14.027 110.887 14.3185C111.154 14.6099 111.357 14.9536 111.482 15.3273C111.608 15.7011 111.653 16.0967 111.615 16.4888C111.654 16.8812 111.609 17.2774 111.484 17.6517C111.359 18.0261 111.156 18.3703 110.889 18.6624C110.621 18.9544 110.295 19.1878 109.931 19.3475C109.567 19.5072 109.174 19.5897 108.776 19.5897C108.378 19.5897 107.984 19.5072 107.621 19.3475C107.257 19.1878 106.931 18.9544 106.663 18.6624C106.396 18.3703 106.193 18.0261 106.068 17.6517C105.943 17.2774 105.898 16.8812 105.937 16.4888ZM110.393 16.4888C110.393 15.1955 109.807 14.4391 108.778 14.4391C107.745 14.4391 107.164 15.1955 107.164 16.4888C107.164 17.7924 107.745 18.5429 108.778 18.5429C109.807 18.5429 110.393 17.7872 110.393 16.4888Z" fill="var(--fill-0, white)" id="Vector_19"/>
<path d="M113.21 13.5081H114.353V14.4559H114.442C114.593 14.1155 114.847 13.8302 115.169 13.6396C115.491 13.4491 115.865 13.3629 116.239 13.393C116.532 13.3711 116.826 13.4149 117.1 13.521C117.373 13.6272 117.619 13.7929 117.819 14.006C118.019 14.2192 118.169 14.4742 118.256 14.7522C118.343 15.0302 118.366 15.3241 118.323 15.6121V19.4745H117.135V15.9078C117.135 14.949 116.714 14.4721 115.835 14.4721C115.636 14.4629 115.438 14.4965 115.253 14.5705C115.069 14.6444 114.902 14.7571 114.766 14.9007C114.629 15.0443 114.526 15.2155 114.462 15.4025C114.399 15.5895 114.377 15.7879 114.398 15.9841V19.4745H113.21V13.5081Z" fill="var(--fill-0, white)" id="Vector_20"/>
<path d="M125.037 12.0227V13.5353H126.341V14.5271H125.037V17.5951C125.037 18.22 125.297 18.4937 125.888 18.4937C126.04 18.4932 126.191 18.4842 126.341 18.4665V19.4473C126.128 19.4852 125.912 19.5053 125.695 19.5075C124.374 19.5075 123.847 19.0469 123.847 17.8966V14.5271H122.892V13.5353H123.847V12.0227H125.037Z" fill="var(--fill-0, white)" id="Vector_21"/>
<path d="M127.964 11.179H129.142V14.4669H129.236C129.394 14.1233 129.655 13.8364 129.984 13.6451C130.312 13.4538 130.692 13.3676 131.072 13.3981C131.363 13.3824 131.655 13.4306 131.925 13.5394C132.196 13.6481 132.439 13.8146 132.637 14.027C132.835 14.2395 132.983 14.4926 133.071 14.7684C133.159 15.0442 133.184 15.3358 133.145 15.6224V19.4745H131.956V15.9129C131.956 14.9599 131.508 14.4773 130.669 14.4773C130.464 14.4607 130.259 14.4885 130.067 14.5588C129.874 14.6291 129.7 14.7402 129.556 14.8842C129.411 15.0283 129.3 15.2019 129.231 15.3929C129.161 15.5839 129.134 15.7876 129.153 15.9899V19.4745H127.964L127.964 11.179Z" fill="var(--fill-0, white)" id="Vector_22"/>
<path d="M140.074 17.8636C139.912 18.4088 139.563 18.8805 139.086 19.1961C138.609 19.5116 138.035 19.6509 137.465 19.5897C137.068 19.6001 136.674 19.5248 136.31 19.369C135.945 19.2133 135.62 18.9809 135.355 18.6879C135.09 18.3949 134.893 18.0483 134.777 17.6722C134.661 17.2962 134.629 16.8996 134.684 16.5101C134.631 16.1194 134.663 15.722 134.779 15.3448C134.895 14.9676 135.091 14.6194 135.354 14.3238C135.617 14.0283 135.941 13.7922 136.305 13.6316C136.668 13.471 137.062 13.3896 137.46 13.393C139.135 13.393 140.146 14.5272 140.146 16.4007V16.8116H135.894V16.8776C135.876 17.0965 135.903 17.3169 135.976 17.5246C136.048 17.7323 136.163 17.9227 136.314 18.0837C136.465 18.2446 136.649 18.3725 136.852 18.4591C137.056 18.5458 137.276 18.5893 137.498 18.5868C137.782 18.6206 138.07 18.5699 138.325 18.4411C138.58 18.3123 138.791 18.1113 138.93 17.8635L140.074 17.8636ZM135.894 15.9408H138.935C138.95 15.7405 138.923 15.5394 138.855 15.3503C138.786 15.1612 138.679 14.9883 138.54 14.8427C138.4 14.6972 138.231 14.5822 138.044 14.5051C137.857 14.428 137.656 14.3905 137.453 14.3951C137.248 14.3926 137.044 14.4308 136.853 14.5076C136.663 14.5844 136.49 14.6981 136.345 14.8422C136.199 14.9862 136.085 15.1576 136.007 15.3463C135.93 15.535 135.891 15.7371 135.894 15.9408Z" fill="var(--fill-0, white)" id="Vector_23"/>
</g>
</g>
</g>
</g>
<defs>
<clipPath id="clip0_0_8">
<rect fill="white" height="53" width="160"/>
</clipPath>
</defs>
</svg>